<svg width="96" height="123" viewBox="0 0 96 123" fill="none" xmlns="http://www.w3.org/2000/svg">
<path d="M16.7358 0H19.5926L15.4342 16.7254H12.5536L9.81344 5.76113L7.09588 16.7254H4.21532L0.0330811 0H2.91365L5.655 10.9642L8.37257 0H11.2531L13.9945 10.9642L16.7358 0Z" fill="#6F6EFF"/>
<path d="M31.904 2.78776H24.7032V6.9688H30.5107V9.75657H24.7032V13.9376H31.904V16.748H23.3087V16.7242H21.9154V0H31.904V2.78776Z" fill="#6F6EFF"/>
<path d="M45.6917 14.2862C45.2193 15.0453 44.5923 15.6414 43.8106 16.0745C43.0289 16.5088 42.1651 16.7254 41.2203 16.7254H35.157V0H40.8717C41.6463 0 42.3626 0.159437 43.0205 0.47593C43.6785 0.793613 44.2401 1.23861 44.7041 1.8121C45.355 2.60215 45.6798 3.51593 45.6798 4.55346C45.6798 5.14242 45.5668 5.71949 45.3431 6.28466C45.1182 6.84982 44.7898 7.34122 44.3555 7.76004C44.9909 8.19433 45.4859 8.76663 45.8428 9.47934C46.1986 10.192 46.3925 10.9512 46.4234 11.7555C46.408 12.6835 46.1641 13.5283 45.6917 14.2862ZM37.9209 2.43914V6.7594H40.5695C40.7087 6.7594 40.867 6.74393 41.0454 6.71299C41.2227 6.68206 41.3667 6.64279 41.475 6.59639C41.8771 6.42625 42.1877 6.1514 42.4042 5.77184C42.6208 5.39229 42.729 5.00202 42.729 4.59867C42.729 4.18105 42.6208 3.78602 42.4042 3.41361C42.1877 3.04238 41.8771 2.7711 41.475 2.60096C41.3048 2.52362 41.1382 2.47722 40.9752 2.46175C40.8122 2.44628 40.6385 2.43795 40.4529 2.43795C40.2673 2.43795 40.1281 2.43795 40.0353 2.43795H37.9209V2.43914ZM43.0895 13.125C43.3454 12.6919 43.4727 12.2266 43.4727 11.7317C43.4727 11.2201 43.3454 10.7524 43.0895 10.3265C42.8337 9.90053 42.4577 9.58761 41.9628 9.38534C41.7462 9.308 41.5095 9.25803 41.2548 9.23423C40.999 9.21044 40.5933 9.19973 40.0353 9.19973H37.9209V14.2874H40.0353C40.5612 14.2874 40.9717 14.2755 41.2667 14.2529C41.5606 14.2291 41.7926 14.1791 41.964 14.1018C42.4589 13.8841 42.8337 13.5592 43.0895 13.125Z" fill="#6F6EFF"/>
<path d="M52.4631 0V16.7492H49.6753V0H52.4631Z" fill="#6F6EFF"/>
<path d="M56.6443 16.7254V0H62.7766C64.3246 0 65.5299 0.511625 66.389 1.53368C67.248 2.55574 67.6787 3.88002 67.6787 5.50651C67.6787 6.76059 67.4265 7.85285 66.9232 8.7821C66.4199 9.71135 65.7036 10.3693 64.7744 10.7572L67.6787 16.7278H64.728L62.0104 11.1522H59.3154V16.7278H56.6443V16.7254ZM59.3154 8.73451H62.1258C63.0241 8.73451 63.7095 8.45609 64.1818 7.89806C64.6542 7.34003 64.891 6.55832 64.891 5.55172C64.891 4.5606 64.6506 3.79435 64.1711 3.25179C63.6904 2.71042 63.0099 2.43914 62.127 2.43914H59.3166V8.73451H59.3154Z" fill="#6F6EFF"/>
<path d="M77.4352 0L82.5455 16.7254H79.7815L78.4108 12.1957H72.6497L71.2564 16.7254H68.4924L73.6027 0H77.4352ZM77.5518 9.40795L75.5303 2.78776L73.5087 9.40795H77.5518Z" fill="#6F6EFF"/>
<path d="M90.2819 16.7254H87.5179V9.75657L81.9662 0H85.149L88.9588 6.9926L92.9304 0H95.9038L90.2819 9.75657V16.7254Z" fill="#6F6EFF"/>
<path d="M0 74.4492C0 100.959 21.4904 122.449 48 122.449C74.5096 122.449 96 100.959 96 74.4492C96 57.7945 87.5172 43.1218 74.637 34.5127L72.5443 103.197H72.5348C72.5419 103.25 72.5443 103.305 72.5443 103.359C72.5443 106.764 59.5391 109.525 43.4966 109.525C27.4541 109.525 14.4488 106.764 14.4488 103.359C14.4488 103.304 14.4524 103.25 14.4584 103.197H14.4488L14.4631 103.175C14.5251 102.725 14.8157 102.287 15.31 101.865L62.581 28.7051C57.9823 27.2401 53.0835 26.4492 48 26.4492C21.4904 26.4492 0 47.9396 0 74.4492Z" fill="#6F6EFF"/>
<path d="M33.638 85.2256V97.8591H39.5336V100.386H31.1108V85.2256H33.638Z" fill="#6F6EFF"/>
<path d="M48.0823 85.2256L52.7143 100.386H50.2085L48.9664 96.2803H43.7442L42.4806 100.386H39.9749L44.6068 85.2256H48.0823ZM48.187 93.7531L46.3547 87.7516L44.5224 93.7531H48.187Z" fill="#6F6EFF"/>
<path d="M64.0536 98.1745C63.6253 98.8622 63.0565 99.4035 62.3486 99.7962C61.6394 100.189 60.8565 100.386 60.0011 100.386H54.5052V85.2256H59.6846C60.3866 85.2256 61.035 85.3696 61.6323 85.6575C62.2284 85.9454 62.7376 86.3488 63.1588 86.8687C63.749 87.585 64.0429 88.4131 64.0429 89.3531C64.0429 89.8873 63.9406 90.4097 63.7371 90.9213C63.5336 91.4341 63.235 91.8791 62.8424 92.2586C63.4182 92.6513 63.8668 93.1712 64.1904 93.8173C64.5129 94.4634 64.689 95.1511 64.7163 95.8805C64.7032 96.7217 64.4819 97.4879 64.0536 98.1745ZM57.011 87.4363V91.3532H59.4109C59.537 91.3532 59.681 91.3389 59.8428 91.3115C60.0034 91.2842 60.1343 91.2485 60.2319 91.2068C60.5972 91.0522 60.878 90.8035 61.0743 90.4596C61.2706 90.1158 61.3694 89.7612 61.3694 89.3959C61.3694 89.0164 61.2706 88.6594 61.0743 88.3215C60.878 87.9848 60.5972 87.7397 60.2319 87.585C60.0772 87.5148 59.9261 87.4732 59.7797 87.4589C59.6322 87.4446 59.474 87.4375 59.3062 87.4375C59.1372 87.4375 59.0111 87.4375 58.9266 87.4375H57.011V87.4363ZM61.6954 97.1227C61.9274 96.73 62.0428 96.3088 62.0428 95.8591C62.0428 95.3962 61.9274 94.9714 61.6954 94.5848C61.4633 94.1993 61.1231 93.9149 60.6745 93.7317C60.4782 93.6615 60.264 93.6162 60.032 93.5948C59.8 93.5734 59.4323 93.5627 58.9266 93.5627H57.011V98.1745H58.9266C59.4038 98.1745 59.7762 98.1637 60.0427 98.1423C60.3092 98.1209 60.5198 98.0757 60.6745 98.0055C61.1231 97.8104 61.4633 97.5153 61.6954 97.1227Z" fill="#6F6EFF"/>
</svg>
